<mxfile host="app.diagrams.net" modified="2023-09-18T12:49:58.903Z" agent="Mozilla/5.0 (Windows NT 10.0; Win64; x64; rv:109.0) Gecko/20100101 Firefox/117.0" etag="FRrGXrxw_ZgJ2gncIJi2" version="21.7.5" type="github">
  <diagram name="Page-1" id="0KsTm0zhciMYpkzP6uIf">
    <mxGraphModel dx="864" dy="818" grid="1" gridSize="10" guides="1" tooltips="1" connect="1" arrows="1" fold="1" page="1" pageScale="1" pageWidth="850" pageHeight="1100" math="0" shadow="0">
      <root>
        <mxCell id="0" />
        <mxCell id="1" parent="0" />
        <mxCell id="HHtb0Kfc1DfzUMWHtlZn-1" value="&lt;font style=&quot;font-size: 18px;&quot;&gt;Client&lt;/font&gt;" style="rounded=0;whiteSpace=wrap;html=1;" vertex="1" parent="1">
          <mxGeometry x="345.5" y="90" width="160" height="50" as="geometry" />
        </mxCell>
        <mxCell id="HHtb0Kfc1DfzUMWHtlZn-3" value="&lt;font style=&quot;font-size: 18px;&quot;&gt;Creates&lt;/font&gt;" style="rhombus;whiteSpace=wrap;html=1;" vertex="1" parent="1">
          <mxGeometry x="359.5" y="200" width="132" height="60" as="geometry" />
        </mxCell>
        <mxCell id="HHtb0Kfc1DfzUMWHtlZn-5" value="&lt;div style=&quot;font-size: 18px;&quot;&gt;Order&lt;/div&gt;" style="rounded=0;whiteSpace=wrap;html=1;" vertex="1" parent="1">
          <mxGeometry x="345" y="320" width="160" height="50" as="geometry" />
        </mxCell>
        <mxCell id="HHtb0Kfc1DfzUMWHtlZn-6" value="" style="endArrow=none;html=1;rounded=0;entryX=0.5;entryY=1;entryDx=0;entryDy=0;" edge="1" parent="1" source="HHtb0Kfc1DfzUMWHtlZn-3" target="HHtb0Kfc1DfzUMWHtlZn-1">
          <mxGeometry width="50" height="50" relative="1" as="geometry">
            <mxPoint x="370" y="400" as="sourcePoint" />
            <mxPoint x="420" y="350" as="targetPoint" />
          </mxGeometry>
        </mxCell>
        <mxCell id="HHtb0Kfc1DfzUMWHtlZn-9" value="&lt;font style=&quot;font-size: 18px;&quot;&gt;1&lt;/font&gt;" style="edgeLabel;html=1;align=center;verticalAlign=middle;resizable=0;points=[];" vertex="1" connectable="0" parent="HHtb0Kfc1DfzUMWHtlZn-6">
          <mxGeometry x="0.1464" y="1" relative="1" as="geometry">
            <mxPoint x="1" y="6" as="offset" />
          </mxGeometry>
        </mxCell>
        <mxCell id="HHtb0Kfc1DfzUMWHtlZn-12" value="" style="endArrow=none;html=1;rounded=0;entryX=0.5;entryY=1;entryDx=0;entryDy=0;exitX=0.5;exitY=0;exitDx=0;exitDy=0;" edge="1" parent="1" source="HHtb0Kfc1DfzUMWHtlZn-5" target="HHtb0Kfc1DfzUMWHtlZn-3">
          <mxGeometry width="50" height="50" relative="1" as="geometry">
            <mxPoint x="290" y="310" as="sourcePoint" />
            <mxPoint x="340" y="260" as="targetPoint" />
          </mxGeometry>
        </mxCell>
        <mxCell id="HHtb0Kfc1DfzUMWHtlZn-13" value="&lt;font style=&quot;font-size: 18px;&quot;&gt;N&lt;/font&gt;" style="edgeLabel;html=1;align=center;verticalAlign=middle;resizable=0;points=[];" vertex="1" connectable="0" parent="HHtb0Kfc1DfzUMWHtlZn-12">
          <mxGeometry x="-0.1565" y="-1" relative="1" as="geometry">
            <mxPoint as="offset" />
          </mxGeometry>
        </mxCell>
        <mxCell id="HHtb0Kfc1DfzUMWHtlZn-24" style="edgeStyle=orthogonalEdgeStyle;rounded=0;orthogonalLoop=1;jettySize=auto;html=1;entryX=1;entryY=0.5;entryDx=0;entryDy=0;endArrow=none;endFill=0;" edge="1" parent="1" source="HHtb0Kfc1DfzUMWHtlZn-14" target="HHtb0Kfc1DfzUMWHtlZn-23">
          <mxGeometry relative="1" as="geometry" />
        </mxCell>
        <mxCell id="HHtb0Kfc1DfzUMWHtlZn-25" value="&lt;font style=&quot;font-size: 18px;&quot;&gt;1&lt;/font&gt;" style="edgeLabel;html=1;align=center;verticalAlign=middle;resizable=0;points=[];" vertex="1" connectable="0" parent="HHtb0Kfc1DfzUMWHtlZn-24">
          <mxGeometry x="0.011" y="-1" relative="1" as="geometry">
            <mxPoint as="offset" />
          </mxGeometry>
        </mxCell>
        <mxCell id="HHtb0Kfc1DfzUMWHtlZn-14" value="&lt;font style=&quot;font-size: 18px;&quot;&gt;Car rental service&lt;/font&gt;" style="rounded=0;whiteSpace=wrap;html=1;" vertex="1" parent="1">
          <mxGeometry x="790" y="320" width="160" height="50" as="geometry" />
        </mxCell>
        <mxCell id="HHtb0Kfc1DfzUMWHtlZn-16" value="&lt;div&gt;&lt;font style=&quot;font-size: 18px;&quot;&gt;is assigned to&lt;/font&gt;&lt;/div&gt;" style="rhombus;whiteSpace=wrap;html=1;" vertex="1" parent="1">
          <mxGeometry x="348" y="430" width="157" height="80" as="geometry" />
        </mxCell>
        <mxCell id="HHtb0Kfc1DfzUMWHtlZn-18" value="&lt;font style=&quot;font-size: 18px;&quot;&gt;Car&lt;/font&gt;" style="rounded=0;whiteSpace=wrap;html=1;" vertex="1" parent="1">
          <mxGeometry x="345.5" y="570" width="160" height="50" as="geometry" />
        </mxCell>
        <mxCell id="HHtb0Kfc1DfzUMWHtlZn-19" value="" style="endArrow=none;html=1;rounded=0;entryX=0.5;entryY=1;entryDx=0;entryDy=0;" edge="1" parent="1">
          <mxGeometry width="50" height="50" relative="1" as="geometry">
            <mxPoint x="426.58" y="430" as="sourcePoint" />
            <mxPoint x="426.58" y="370" as="targetPoint" />
          </mxGeometry>
        </mxCell>
        <mxCell id="HHtb0Kfc1DfzUMWHtlZn-20" value="&lt;font style=&quot;font-size: 18px;&quot;&gt;1&lt;/font&gt;" style="edgeLabel;html=1;align=center;verticalAlign=middle;resizable=0;points=[];" vertex="1" connectable="0" parent="HHtb0Kfc1DfzUMWHtlZn-19">
          <mxGeometry x="0.1464" y="1" relative="1" as="geometry">
            <mxPoint x="1" y="6" as="offset" />
          </mxGeometry>
        </mxCell>
        <mxCell id="HHtb0Kfc1DfzUMWHtlZn-21" value="" style="endArrow=none;html=1;rounded=0;entryX=0.5;entryY=1;entryDx=0;entryDy=0;" edge="1" parent="1">
          <mxGeometry width="50" height="50" relative="1" as="geometry">
            <mxPoint x="426.08" y="570" as="sourcePoint" />
            <mxPoint x="426.08" y="510" as="targetPoint" />
          </mxGeometry>
        </mxCell>
        <mxCell id="HHtb0Kfc1DfzUMWHtlZn-22" value="&lt;font style=&quot;font-size: 18px;&quot;&gt;1&lt;/font&gt;" style="edgeLabel;html=1;align=center;verticalAlign=middle;resizable=0;points=[];" vertex="1" connectable="0" parent="HHtb0Kfc1DfzUMWHtlZn-21">
          <mxGeometry x="0.1464" y="1" relative="1" as="geometry">
            <mxPoint x="1" y="6" as="offset" />
          </mxGeometry>
        </mxCell>
        <mxCell id="HHtb0Kfc1DfzUMWHtlZn-29" style="edgeStyle=orthogonalEdgeStyle;rounded=0;orthogonalLoop=1;jettySize=auto;html=1;entryX=1;entryY=0.5;entryDx=0;entryDy=0;endArrow=none;endFill=0;" edge="1" parent="1" source="HHtb0Kfc1DfzUMWHtlZn-23" target="HHtb0Kfc1DfzUMWHtlZn-5">
          <mxGeometry relative="1" as="geometry" />
        </mxCell>
        <mxCell id="HHtb0Kfc1DfzUMWHtlZn-32" value="&lt;font style=&quot;font-size: 18px;&quot;&gt;N&lt;/font&gt;" style="edgeLabel;html=1;align=center;verticalAlign=middle;resizable=0;points=[];" vertex="1" connectable="0" parent="HHtb0Kfc1DfzUMWHtlZn-29">
          <mxGeometry x="-0.0171" y="-1" relative="1" as="geometry">
            <mxPoint as="offset" />
          </mxGeometry>
        </mxCell>
        <mxCell id="HHtb0Kfc1DfzUMWHtlZn-23" value="&lt;font style=&quot;font-size: 18px;&quot;&gt;Accepts&lt;/font&gt;" style="rhombus;whiteSpace=wrap;html=1;" vertex="1" parent="1">
          <mxGeometry x="580" y="315" width="132" height="60" as="geometry" />
        </mxCell>
      </root>
    </mxGraphModel>
  </diagram>
</mxfile>
